:SAMPLES-PER-SECOND 30
:FULLY-SPECIFIED
:DEGREES
280
root  16.6116 29.5758 -8.41752 -1.10278 -86.2544 5.27374
RightUpLeg  -61.4984 -12.8662 36.0311
RightLeg  37.2745 -2.71047 -2.48832
RightFoot  22.062 -1.55975 5.03253
RightToes  1.16414e-010 0 -3.6325e-017
Spine  43.2506 -2.24641 20.5022
Spine1  1.65771 5.07349 12.1951
HEad  -44.1926 -38.8915 17.461
LeftShoulder1  3.02859 -9.03921 -17.5183
LeftArm  56.0075 48.4039 -44.2267
LeftForeArm  -4.72465 -22.8739 -5.49513
LeftHand  -1.36876 10.171 -29.6894
RightShoulder  0.0065717 -1.33919 -8.85777
RightArm  -73.9972 42.765 -19.9496
RightForeArm  -99.4191 -0.0359166 -11.3992
RightHand  -0.152565 -0.750709 -3.91971
LeftUpLeg  -31.546 25.4241 -34.4394
LeftLeg  71.2213 1.82461 7.14846
LeftFoot  -24.9285 0.770938 6.37987
LeftToes  7.09373e-011 9.9627e-011 8.96859e-012
281
root  17.1893 29.1174 -11.0606 -13.7224 -82.3862 15.9693
RightUpLeg  -62.9644 -13.9154 32.2182
RightLeg  37.7872 3.34515 2.51647
RightFoot  34.9302 -8.84219 21.357
RightToes  1.16414e-010 0 -3.6325e-017
Spine  41.4856 -2.3151 15.1822
Spine1  0.844219 2.99337 12.2842
HEad  -46.777 -35.6667 16.3539
LeftShoulder1  2.8194 -8.46887 -16.8675
LeftArm  58.0576 42.4546 -42.0604
LeftForeArm  -5.97422 -21.7659 -6.347
LeftHand  -1.53958 10.7688 -29.8188
RightShoulder  0.005091 -3.33256 -7.07952
RightArm  -70.7989 42.0147 -14.7912
RightForeArm  -99.6416 -0.0234338 -11.3387
RightHand  -0.208198 0.165483 -4.18435
LeftUpLeg  -30.1652 24.2089 -33.137
LeftLeg  75.4253 2.63319 12.9289
LeftFoot  -35.242 1.36754 5.64071
LeftToes  7.09373e-011 9.9627e-011 8.96859e-012
282
root  17.7803 28.8185 -13.5607 -21.0743 -79.2065 21.2339
RightUpLeg  -63.8385 -14.9093 26.9978
RightLeg  40.0623 3.4672 2.81703
RightFoot  35.2607 -13.6303 31.8497
RightToes  1.16414e-010 0 -3.6325e-017
Spine  40.5863 -2.29227 10.4653
Spine1  0.366323 1.75795 11.1039
HEad  -47.992 -32.8579 13.3721
LeftShoulder1  2.59471 -8.08087 -15.6207
LeftArm  57.2328 36.7157 -41.5571
LeftForeArm  -3.8644 -20.0548 -7.92684
LeftHand  -1.79276 11.7007 -29.7464
RightShoulder  -0.0109659 -3.91378 -5.02387
RightArm  -66.7415 38.851 -11.461
RightForeArm  -99.3274 -0.0457272 -11.2813
RightHand  -0.498914 3.85378 -5.90314
LeftUpLeg  -30.8256 25.9269 -31.9933
LeftLeg  79.3071 2.52077 17.788
LeftFoot  -39.1832 0.236239 -0.0687247
LeftToes  7.09373e-011 9.9627e-011 8.96859e-012
283
root  18.3788 28.8464 -15.8666 -24.3744 -77.6979 21.0604
RightUpLeg  -63.4975 -16.7338 22.4978
RightLeg  46.923 2.86073 3.02536
RightFoot  22.9475 -10.9448 34.8247
RightToes  1.16414e-010 0 -3.6325e-017
Spine  41.7018 -2.23062 7.77826
Spine1  0.288981 1.12916 8.85972
HEad  -46.6416 -30.3994 9.35508
LeftShoulder1  2.48148 -8.1607 -14.3891
LeftArm  55.1026 32.7195 -41.6289
LeftForeArm  -0.443521 -18.4017 -9.50848
LeftHand  -1.88328 12.1298 -29.3055
RightShoulder  0.0450674 -2.68747 -3.36356
RightArm  -60.441 33.3519 -9.24278
RightForeArm  -110.567 0.301737 -10.7435
RightHand  0.277557 -6.14237 -7.78916
LeftUpLeg  -30.3224 27.7623 -27.9714
LeftLeg  81.95 2.0808 21.1956
LeftFoot  -40.1068 -0.831181 -4.2027
LeftToes  7.09373e-011 9.9627e-011 8.96859e-012
284
root  18.7999 28.9604 -17.9477 -30.2618 -76.9094 23.616
RightUpLeg  -63.5797 -18.0098 17.1545
RightLeg  57.4891 3.48735 5.54203
RightFoot  7.97509 -5.58981 32.3087
RightToes  1.16414e-010 0 -3.6325e-017
Spine  43.0787 -1.68718 5.2797
Spine1  -0.456927 1.00619 6.23244
HEad  -43.1102 -28.5782 5.56016
LeftShoulder1  2.43793 -8.402 -13.5093
LeftArm  54.2824 30.7852 -41.4527
LeftForeArm  1.27888 -17.5849 -10.2625
LeftHand  -1.79559 11.9077 -28.8775
RightShoulder  0.067508 -2.37373 -2.92531
RightArm  -54.778 28.2384 -5.71695
RightForeArm  -129.659 0.905392 -10.4732
RightHand  2.87097 -26.1155 -16.532
LeftUpLeg  -28.3637 27.4939 -23.2822
LeftLeg  83.6371 1.36515 20.6303
LeftFoot  -40.9715 -1.26578 -5.72586
LeftToes  7.09373e-011 9.9627e-011 8.96859e-012
285
root  19.1246 29.1429 -19.9327 -36.2839 -76.1546 27.1672
RightUpLeg  -63.5442 -17.693 9.61913
RightLeg  68.6539 2.64833 6.56826
RightFoot  -1.24609 -2.51733 27.9314
RightToes  1.16414e-010 0 -3.6325e-017
Spine  44.4078 -0.677033 2.75829
Spine1  -2.51689 1.28411 3.87906
HEad  -38.4356 -27.7792 2.07348
LeftShoulder1  2.37141 -8.43068 -12.8402
LeftArm  53.961 30.2683 -41.1111
LeftForeArm  1.4397 -17.2857 -10.5504
LeftHand  -1.69537 11.4859 -29.0967
RightShoulder  0.0166405 -3.22539 -3.2449
RightArm  -51.1842 23.8818 -1.84311
RightForeArm  -138.757 1.12617 -10.5137
RightHand  6.58709 -32.4647 -26.9439
LeftUpLeg  -26.5635 26.0419 -19.4193
LeftLeg  84.2619 0.943523 18.3174
LeftFoot  -41.3629 -1.54846 -6.71346
LeftToes  7.09373e-011 9.9627e-011 8.96859e-012
286
root  19.4749 29.4582 -21.8568 -36.964 -75.2801 25.7267
RightUpLeg  -61.8121 -16.4374 0.401807
RightLeg  79.1399 0.528265 0.915683
RightFoot  -3.62655 -1.43426 21.0934
RightToes  1.16414e-010 0 -3.6325e-017
Spine  45.6688 -0.0202806 1.61064
Spine1  -4.83845 1.48006 2.09918
HEad  -33.8023 -27.5413 -1.35525
LeftShoulder1  2.31461 -8.2765 -12.5964
LeftArm  52.5437 30.3142 -40.7113
LeftForeArm  1.41243 -16.7637 -11.0433
LeftHand  -1.67675 11.2648 -29.8155
RightShoulder  -0.0183454 -3.84708 -3.25558
RightArm  -48.1497 19.608 -0.351624
RightForeArm  -147.335 1.27108 -10.4884
RightHand  10.6091 -34.8361 -38.5632
LeftUpLeg  -25.2697 24.066 -15.5377
LeftLeg  83.5111 1.22618 18.5349
LeftFoot  -40.4012 -1.74864 -7.6858
LeftToes  7.09373e-011 9.9627e-011 8.96859e-012
287
root  19.7463 29.8181 -23.7747 -32.5412 -74.1065 19.8371
RightUpLeg  -57.8501 -14.2578 -9.81196
RightLeg  88.8461 0.390337 -8.88023
RightFoot  -0.995253 -1.07908 11.9968
RightToes  1.16414e-010 0 -3.6325e-017
Spine  45.6144 0.391869 1.14838
Spine1  -6.0135 1.40066 1.41724
HEad  -30.2265 -27.0885 -4.02773
LeftShoulder1  2.33414 -8.05054 -13.2086
LeftArm  51.0485 30.5525 -40.2407
LeftForeArm  1.44622 -16.3357 -11.4252
LeftHand  -1.70189 11.2772 -30.2032
RightShoulder  -0.0493647 -4.36945 -3.00756
RightArm  -44.9148 16.062 -0.763322
RightForeArm  -155.557 1.28898 -10.0802
RightHand  13.5754 -34.3875 -48.7756
LeftUpLeg  -24.4805 21 -11.2523
LeftLeg  82.0503 1.96506 20.6727
LeftFoot  -39.4615 -1.77677 -8.03886
LeftToes  7.09373e-011 9.9627e-011 8.96859e-012
288
root  19.9172 30.2635 -25.7473 -25.6396 -72.8526 12.2722
RightUpLeg  -51.0566 -10.4209 -19.688
RightLeg  95.7036 2.38481 -15.3357
RightFoot  2.68533 -0.428144 3.58789
RightToes  1.16414e-010 0 -3.6325e-017
Spine  44.3892 0.960934 0.561439
Spine1  -5.99363 1.11906 1.83144
HEad  -27.8488 -26.239 -5.10931
LeftShoulder1  2.36149 -7.63364 -14.3116
LeftArm  50.945 31.2991 -40.2052
LeftForeArm  1.49502 -16.7729 -10.9819
LeftHand  -1.64833 11.1895 -29.6797
RightShoulder  -0.106144 -5.35077 -3.03257
RightArm  -43.5786 13.617 -0.474199
RightForeArm  -160.254 1.32902 -10.1466
RightHand  15.1424 -33.0521 -55.9383
LeftUpLeg  -24.3274 17.0615 -6.29124
LeftLeg  80.36 2.68541 21.2104
LeftFoot  -38.6373 -1.7531 -8.17372
LeftToes  7.09373e-011 9.9627e-011 8.96859e-012
